# 
# Wavefront OBJ file
# Converted by the DEEP Exploration 3.5.10.1242
# Right Hemisphere, LTD
# http://www.righthemisphere.com/
# 
# object Donut001
g Donut001
v 98.4466 0 -8
v 95.844 22.5574 -8
v 88.4318 43.2729 -8
v 76.8035 61.5527 -8
v 61.5527 76.8035 -8
v 43.2728 88.4318 -8
v 22.5574 95.844 -8
v -4.30329e-006 98.4466 -8
v -22.5574 95.844 -8
v -43.2729 88.4318 -8
v -61.5527 76.8035 -8
v -76.8035 61.5527 -8
v -88.4318 43.2728 -8
v -95.844 22.5574 -8
v -98.4466 -8.60647e-006 -8
v -95.844 -22.5575 -8
v -88.4318 -43.2729 -8
v -76.8035 -61.5527 -8
v -61.5527 -76.8035 -8
v -43.2728 -88.4318 -8
v -22.5574 -95.844 -8
v 1.29098e-005 -98.4466 -8
v 22.5575 -95.844 -8
v 43.2729 -88.4318 -8
v 61.5527 -76.8035 -8
v 76.8035 -61.5527 -8
v 88.4318 -43.2728 -8
v 95.844 -22.5574 -8
v 98.4466 0 8
v 95.844 22.5574 8
v 88.4318 43.2729 8
v 76.8035 61.5527 8
v 61.5527 76.8035 8
v 43.2728 88.4318 8
v 22.5574 95.844 8
v -4.30329e-006 98.4466 8
v -22.5574 95.844 8
v -43.2729 88.4318 8
v -61.5527 76.8035 8
v -76.8035 61.5527 8
v -88.4318 43.2728 8
v -95.844 22.5574 8
v -98.4466 -8.60647e-006 8
v -95.844 -22.5575 8
v -88.4318 -43.2729 8
v -76.8035 -61.5527 8
v -61.5527 -76.8035 8
v -43.2728 -88.4318 8
v -22.5574 -95.844 8
v 1.29098e-005 -98.4466 8
v 22.5575 -95.844 8
v 43.2729 -88.4318 8
v 61.5527 -76.8035 8
v 76.8035 -61.5527 8
v 88.4318 -43.2728 8
v 95.844 -22.5574 8
v 8.94786 83.872 -8
v 26.5187 80.1821 -8
v 42.5289 73.026 -8
v 56.5622 62.825 -8
v 68.2019 50.0006 -8
v 77.0317 34.9741 -8
v 82.635 18.1667 -8
v 84.5953 0 -8
v 84.1543 -8.67488 -8
v 82.8584 -17.0971 -8
v 80.7484 -25.221 -8
v 77.8648 -33.0007 -8
v 74.2485 -40.3907 -8
v 69.9399 -47.3451 -8
v 64.9799 -53.8182 -8
v 8.94787 2.00159 -8
v 8.94786 83.872 8
v 26.5187 80.1821 8
v 42.5289 73.026 8
v 56.5622 62.825 8
v 68.2019 50.0006 8
v 77.0317 34.9741 8
v 82.635 18.1667 8
v 84.5953 0 8
v 84.1543 -8.67488 8
v 82.8584 -17.0971 8
v 80.7484 -25.221 8
v 77.8648 -33.0007 8
v 74.2485 -40.3907 8
v 69.9399 -47.3451 8
v 64.9799 -53.8182 8
v 8.94787 2.00159 8
v 53.8288 -65.1632 -8
v 48.3087 -69.3459 -8
v 42.4471 -73.0696 -8
v 36.2707 -76.3078 -8
v 29.806 -79.0337 -8
v 23.0796 -81.2208 -8
v 16.1181 -82.8425 -8
v 8.94786 -83.872 -8
v 8.94786 -20.4522 -8
v 53.8288 -65.1632 8
v 48.3087 -69.3459 8
v 42.4471 -73.0696 8
v 36.2707 -76.3078 8
v 29.806 -79.0337 8
v 23.0796 -81.2208 8
v 16.1181 -82.8425 8
v 8.94786 -83.872 8
v 8.94786 -20.4522 8
v -53.8281 -65.1321 -8
v -7.95366 -19.4314 -8
v -7.95366 -83.9523 -8
v -15.2912 -82.9831 -8
v -22.4148 -81.3941 -8
v -29.296 -79.2134 -8
v -35.9063 -76.4688 -8
v -42.2174 -73.1885 -8
v -48.2008 -69.4002 -8
v -53.8281 -65.1321 8
v -7.95366 -19.4314 8
v -7.95366 -83.9523 8
v -15.2912 -82.9831 8
v -22.4148 -81.3941 8
v -29.296 -79.2134 8
v -35.9063 -76.4688 8
v -42.2174 -73.1885 8
v -48.2008 -69.4002 8
v -64.9827 -53.7907 -8
v -69.9433 -47.323 -8
v -74.2518 -40.3732 -8
v -77.8676 -32.9874 -8
v -80.7503 -25.2113 -8
v -82.8594 -17.0907 -8
v -84.1546 -8.67171 -8
v -84.5953 -7.39552e-006 -8
v -82.6049 18.3035 -8
v -76.9178 35.2227 -8
v -67.9604 50.3262 -8
v -56.1589 63.1824 -8
v -41.9398 73.3599 -8
v -25.7293 80.427 -8
v -7.95366 83.9523 -8
v -7.95367 3.02239 -8
v -64.9827 -53.7907 8
v -69.9433 -47.323 8
v -74.2518 -40.3732 8
v -77.8676 -32.9874 8
v -80.7503 -25.2113 8
v -82.8594 -17.0907 8
v -84.1546 -8.67171 8
v -84.5953 -7.39552e-006 8
v -82.6049 18.3035 8
v -76.9178 35.2227 8
v -67.9604 50.3262 8
v -56.1589 63.1824 8
v -41.9398 73.3599 8
v -25.7293 80.427 8
v -7.95366 83.9523 8
v -7.95367 3.02239 8
# 156 verticies
vn 0.999261 0.0384306 0
vn 0.964431 0.264336 0
vn 0.981821 0.189811 0
vn 0.999261 -0.0384307 0
vn 0.881209 0.472726 0
vn 0.913987 0.405744 0
vn 0.756676 0.65379 0
vn 0.802469 0.596694 0
vn 0.596694 0.802469 0
vn 0.653789 0.756677 0
vn 0.405744 0.913987 0
vn 0.472726 0.881209 0
vn 0.189811 0.981821 0
vn 0.264336 0.964431 0
vn -0.0384306 0.999261 0
vn 0.0384307 0.999261 0
vn -0.264336 0.964431 0
vn -0.189811 0.981821 0
vn -0.472726 0.881209 0
vn -0.405744 0.913987 0
vn -0.653789 0.756676 0
vn -0.596695 0.802468 0
vn -0.802469 0.596694 0
vn -0.756677 0.653789 0
vn -0.913987 0.405744 0
vn -0.88121 0.472726 0
vn -0.981821 0.189811 0
vn -0.964431 0.264336 0
vn -0.999261 -0.0384306 0
vn -0.999261 0.0384307 0
vn -0.964431 -0.264336 0
vn -0.981821 -0.189811 0
vn -0.881209 -0.472726 0
vn -0.913987 -0.405744 0
vn -0.756676 -0.65379 0
vn -0.802468 -0.596695 0
vn -0.596694 -0.802469 0
vn -0.653789 -0.756677 0
vn -0.405744 -0.913987 0
vn -0.472726 -0.88121 0
vn -0.189811 -0.981821 0
vn -0.264336 -0.964431 0
vn 0.0384307 -0.999261 0
vn -0.0384307 -0.999261 0
vn 0.264336 -0.964431 0
vn 0.189811 -0.981821 0
vn 0.472726 -0.881209 0
vn 0.405744 -0.913987 0
vn 0.65379 -0.756676 0
vn 0.596694 -0.802469 0
vn 0.802469 -0.596694 0
vn 0.756677 -0.653789 0
vn 0.913987 -0.405744 0
vn 0.881209 -0.472726 0
vn 0.981821 -0.189811 0
vn 0.964431 -0.264336 0
vn -0.205518 -0.978653 0
vn -0.342277 -0.939599 0
vn -0.274419 -0.96161 0
vn -0.530561 -0.847647 0
vn -0.470298 -0.882507 0
vn -0.692886 -0.721047 0
vn -0.641814 -0.76686 0
vn -0.825485 -0.564424 0
vn -0.78473 -0.619837 0
vn -0.924337 -0.381578 0
vn -0.895362 -0.445338 0
vn -0.984057 -0.177852 0
vn -0.968793 -0.247871 0
vn -0.999998 -0.00192042 0
vn -0.9985 -0.0547518 0
vn -0.992961 0.118442 0
vn -0.996412 0.0846349 0
vn -0.975829 0.218535 0
vn -0.982665 0.185391 0
vn -0.948809 0.31585 0
vn -0.958894 0.283763 0
vn -0.912382 0.40934 0
vn -0.925546 0.378636 0
vn -0.867078 0.498172 0
vn -0.883142 0.469105 0
vn -0.813426 0.581668 0
vn -0.832216 0.554451 0
vn -0.793768 0.60822 0
vn 0.705764 0.708447 0
vn 1 1.16486e-007 0
vn -0.603922 0.797043 0
vn -0.559213 0.829024 0
vn -0.581796 0.813335 0
vn -0.488671 0.872468 0
vn -0.512654 0.858596 0
vn -0.414126 0.910219 0
vn -0.439411 0.898286 0
vn -0.335925 0.941889 0
vn -0.362386 0.932028 0
vn -0.254525 0.967066 0
vn -0.281997 0.959415 0
vn -0.170516 0.985355 0
vn -0.198786 0.980043 0
vn -0.142127 0.989848 0
vn 1 0 0
vn -0.705764 -0.708447 0
vn 0.705764 -0.708447 0
vn -1 7.39043e-009 0
vn 0.130952 0.991389 0
vn 0.188952 0.981986 0
vn 0.160009 0.987116 0
vn 0.274208 0.961671 0
vn 0.246051 0.969257 0
vn 0.356636 0.934244 0
vn 0.329498 0.944156 0
vn 0.43564 0.900121 0
vn 0.409704 0.912219 0
vn 0.510759 0.859724 0
vn 0.486164 0.873867 0
vn 0.581639 0.813447 0
vn 0.558493 0.829509 0
vn 0.604306 0.796752 0
vn 0.793482 0.608593 0
vn 0.832021 0.554744 0
vn 0.813187 0.582003 0
vn 0.883048 0.469284 0
vn 0.866955 0.498387 0
vn 0.925512 0.378718 0
vn 0.912332 0.409452 0
vn 0.95889 0.283779 0
vn 0.948798 0.315884 0
vn 0.982668 0.185372 0
vn 0.975832 0.218524 0
vn 0.996414 0.0846158 0
vn 0.992964 0.118418 0
vn 0.998469 -0.0553095 0
vn 0.999998 -0.00220594 0
vn 0.968314 -0.249738 0
vn 0.983812 -0.179204 0
vn 0.893787 -0.448492 0
vn 0.92319 -0.384344 0
vn 0.781554 -0.623838 0
vn 0.822894 -0.568195 0
vn 0.636606 -0.771189 0
vn 0.688402 -0.725329 0
vn 0.462699 -0.886515 0
vn 0.523797 -0.851843 0
vn 0.264262 -0.964451 0
vn 0.332981 -0.942934 0
vn 0.194536 -0.980895 0
vn -1 1.41407e-007 0
vn -0.705764 0.708447 0
vn 0 0 -1
vn 0 0 1
# 150 normals
f  1//1 2//2 30//3
f  1//1 30//3 29//4
f  2//2 3//5 31//6
f  2//2 31//6 30//3
f  3//5 4//7 32//8
f  3//5 32//8 31//6
f  4//7 5//9 33//10
f  4//7 33//10 32//8
f  5//9 6//11 34//12
f  5//9 34//12 33//10
f  6//11 7//13 35//14
f  6//11 35//14 34//12
f  7//13 8//15 36//16
f  7//13 36//16 35//14
f  8//15 9//17 37//18
f  8//15 37//18 36//16
f  9//17 10//19 38//20
f  9//17 38//20 37//18
f  10//19 11//21 39//22
f  10//19 39//22 38//20
f  11//21 12//23 40//24
f  11//21 40//24 39//22
f  12//23 13//25 41//26
f  12//23 41//26 40//24
f  13//25 14//27 42//28
f  13//25 42//28 41//26
f  14//27 15//29 43//30
f  14//27 43//30 42//28
f  15//29 16//31 44//32
f  15//29 44//32 43//30
f  16//31 17//33 45//34
f  16//31 45//34 44//32
f  17//33 18//35 46//36
f  17//33 46//36 45//34
f  18//35 19//37 47//38
f  18//35 47//38 46//36
f  19//37 20//39 48//40
f  19//37 48//40 47//38
f  20//39 21//41 49//42
f  20//39 49//42 48//40
f  21//41 22//43 50//44
f  21//41 50//44 49//42
f  22//43 23//45 51//46
f  22//43 51//46 50//44
f  23//45 24//47 52//48
f  23//45 52//48 51//46
f  24//47 25//49 53//50
f  24//47 53//50 52//48
f  25//49 26//51 54//52
f  25//49 54//52 53//50
f  26//51 27//53 55//54
f  26//51 55//54 54//52
f  27//53 28//55 56//56
f  27//53 56//56 55//54
f  28//55 1//1 29//4
f  28//55 29//4 56//56
f  57//57 58//58 74//59
f  57//57 74//59 73//57
f  58//58 59//60 75//61
f  58//58 75//61 74//59
f  59//60 60//62 76//63
f  59//60 76//63 75//61
f  60//62 61//64 77//65
f  60//62 77//65 76//63
f  61//64 62//66 78//67
f  61//64 78//67 77//65
f  62//66 63//68 79//69
f  62//66 79//69 78//67
f  63//68 64//70 80//71
f  63//68 80//71 79//69
f  64//70 65//72 81//73
f  64//70 81//73 80//71
f  65//72 66//74 82//75
f  65//72 82//75 81//73
f  66//74 67//76 83//77
f  66//74 83//77 82//75
f  67//76 68//78 84//79
f  67//76 84//79 83//77
f  68//78 69//80 85//81
f  68//78 85//81 84//79
f  69//80 70//82 86//83
f  69//80 86//83 85//81
f  70//82 71//84 87//84
f  70//82 87//84 86//83
f  71//85 72//85 88//85
f  71//85 88//85 87//85
f  72//86 57//86 73//86
f  72//86 73//86 88//86
f  89//87 90//88 99//89
f  89//87 99//89 98//87
f  90//88 91//90 100//91
f  90//88 100//91 99//89
f  91//90 92//92 101//93
f  91//90 101//93 100//91
f  92//92 93//94 102//95
f  92//92 102//95 101//93
f  93//94 94//96 103//97
f  93//94 103//97 102//95
f  94//96 95//98 104//99
f  94//96 104//99 103//97
f  95//98 96//100 105//100
f  95//98 105//100 104//99
f  96//101 97//101 106//101
f  96//101 106//101 105//101
f  97//102 89//102 98//102
f  97//102 98//102 106//102
f  107//103 108//103 117//103
f  107//103 117//103 116//103
f  108//104 109//104 118//104
f  108//104 118//104 117//104
f  109//105 110//106 119//107
f  109//105 119//107 118//105
f  110//106 111//108 120//109
f  110//106 120//109 119//107
f  111//108 112//110 121//111
f  111//108 121//111 120//109
f  112//110 113//112 122//113
f  112//110 122//113 121//111
f  113//112 114//114 123//115
f  113//112 123//115 122//113
f  114//114 115//116 124//117
f  114//114 124//117 123//115
f  115//116 107//118 116//118
f  115//116 116//118 124//117
f  125//119 126//120 142//121
f  125//119 142//121 141//119
f  126//120 127//122 143//123
f  126//120 143//123 142//121
f  127//122 128//124 144//125
f  127//122 144//125 143//123
f  128//124 129//126 145//127
f  128//124 145//127 144//125
f  129//126 130//128 146//129
f  129//126 146//129 145//127
f  130//128 131//130 147//131
f  130//128 147//131 146//129
f  131//130 132//132 148//133
f  131//130 148//133 147//131
f  132//132 133//134 149//135
f  132//132 149//135 148//133
f  133//134 134//136 150//137
f  133//134 150//137 149//135
f  134//136 135//138 151//139
f  134//136 151//139 150//137
f  135//138 136//140 152//141
f  135//138 152//141 151//139
f  136//140 137//142 153//143
f  136//140 153//143 152//141
f  137//142 138//144 154//145
f  137//142 154//145 153//143
f  138//144 139//146 155//146
f  138//144 155//146 154//145
f  139//147 140//147 156//147
f  139//147 156//147 155//147
f  140//148 125//148 141//148
f  140//148 141//148 156//148
f  96//149 109//149 108//149
f  108//149 97//149 96//149
f  28//149 64//149 1//149
f  28//149 65//149 64//149
f  28//149 66//149 65//149
f  28//149 67//149 66//149
f  27//149 67//149 28//149
f  27//149 68//149 67//149
f  27//149 69//149 68//149
f  26//149 69//149 27//149
f  26//149 70//149 69//149
f  26//149 71//149 70//149
f  25//149 71//149 26//149
f  25//149 89//149 71//149
f  64//149 2//149 1//149
f  63//149 2//149 64//149
f  25//149 90//149 89//149
f  24//149 90//149 25//149
f  24//149 91//149 90//149
f  24//149 92//149 91//149
f  23//149 92//149 24//149
f  23//149 93//149 92//149
f  23//149 94//149 93//149
f  23//149 95//149 94//149
f  22//149 95//149 23//149
f  22//149 96//149 95//149
f  22//149 109//149 96//149
f  21//149 109//149 22//149
f  21//149 110//149 109//149
f  21//149 111//149 110//149
f  20//149 111//149 21//149
f  20//149 112//149 111//149
f  20//149 113//149 112//149
f  20//149 114//149 113//149
f  19//149 114//149 20//149
f  19//149 115//149 114//149
f  19//149 107//149 115//149
f  18//149 107//149 19//149
f  18//149 125//149 107//149
f  18//149 126//149 125//149
f  17//149 126//149 18//149
f  17//149 127//149 126//149
f  17//149 128//149 127//149
f  16//149 128//149 17//149
f  16//149 129//149 128//149
f  16//149 130//149 129//149
f  15//149 130//149 16//149
f  15//149 131//149 130//149
f  15//149 132//149 131//149
f  14//149 132//149 15//149
f  14//149 133//149 132//149
f  13//149 133//149 14//149
f  13//149 134//149 133//149
f  13//149 135//149 134//149
f  12//149 135//149 13//149
f  12//149 136//149 135//149
f  11//149 136//149 12//149
f  11//149 137//149 136//149
f  10//149 137//149 11//149
f  10//149 138//149 137//149
f  9//149 138//149 10//149
f  9//149 139//149 138//149
f  8//149 139//149 9//149
f  63//149 3//149 2//149
f  62//149 3//149 63//149
f  61//149 3//149 62//149
f  61//149 4//149 3//149
f  60//149 4//149 61//149
f  60//149 5//149 4//149
f  59//149 5//149 60//149
f  59//149 6//149 5//149
f  58//149 6//149 59//149
f  58//149 7//149 6//149
f  57//149 7//149 58//149
f  57//149 8//149 7//149
f  57//149 139//149 8//149
f  97//149 71//149 89//149
f  97//149 72//149 71//149
f  108//149 72//149 97//149
f  125//149 108//149 107//149
f  140//149 108//149 125//149
f  140//149 72//149 108//149
f  140//149 57//149 72//149
f  139//149 57//149 140//149
f  105//150 117//150 118//150
f  117//150 105//150 106//150
f  56//150 29//150 80//150
f  56//150 80//150 81//150
f  56//150 81//150 82//150
f  56//150 82//150 83//150
f  55//150 56//150 83//150
f  55//150 83//150 84//150
f  55//150 84//150 85//150
f  54//150 55//150 85//150
f  54//150 85//150 86//150
f  54//150 86//150 87//150
f  53//150 54//150 87//150
f  53//150 87//150 98//150
f  80//150 29//150 30//150
f  79//150 80//150 30//150
f  53//150 98//150 99//150
f  52//150 53//150 99//150
f  52//150 99//150 100//150
f  52//150 100//150 101//150
f  51//150 52//150 101//150
f  51//150 101//150 102//150
f  51//150 102//150 103//150
f  51//150 103//150 104//150
f  50//150 51//150 104//150
f  50//150 104//150 105//150
f  50//150 105//150 118//150
f  49//150 50//150 118//150
f  49//150 118//150 119//150
f  49//150 119//150 120//150
f  48//150 49//150 120//150
f  48//150 120//150 121//150
f  48//150 121//150 122//150
f  48//150 122//150 123//150
f  47//150 48//150 123//150
f  47//150 123//150 124//150
f  47//150 124//150 116//150
f  46//150 47//150 116//150
f  46//150 116//150 141//150
f  46//150 141//150 142//150
f  45//150 46//150 142//150
f  45//150 142//150 143//150
f  45//150 143//150 144//150
f  44//150 45//150 144//150
f  44//150 144//150 145//150
f  44//150 145//150 146//150
f  43//150 44//150 146//150
f  43//150 146//150 147//150
f  43//150 147//150 148//150
f  42//150 43//150 148//150
f  42//150 148//150 149//150
f  41//150 42//150 149//150
f  41//150 149//150 150//150
f  41//150 150//150 151//150
f  40//150 41//150 151//150
f  40//150 151//150 152//150
f  39//150 40//150 152//150
f  39//150 152//150 153//150
f  38//150 39//150 153//150
f  38//150 153//150 154//150
f  37//150 38//150 154//150
f  37//150 154//150 155//150
f  36//150 37//150 155//150
f  79//150 30//150 31//150
f  78//150 79//150 31//150
f  77//150 78//150 31//150
f  77//150 31//150 32//150
f  76//150 77//150 32//150
f  76//150 32//150 33//150
f  75//150 76//150 33//150
f  75//150 33//150 34//150
f  74//150 75//150 34//150
f  74//150 34//150 35//150
f  73//150 74//150 35//150
f  73//150 35//150 36//150
f  73//150 36//150 155//150
f  106//150 98//150 87//150
f  106//150 87//150 88//150
f  117//150 106//150 88//150
f  141//150 116//150 117//150
f  156//150 141//150 117//150
f  156//150 117//150 88//150
f  156//150 88//150 73//150
f  155//150 156//150 73//150
