# 
# Wavefront OBJ file
# Converted by the DEEP Exploration 3.5.10.1242
# Right Hemisphere, LTD
# http://www.righthemisphere.com/
# 
# object sides
g sides
v 53.0156 53.523 -8
v 61.1329 53.0157 -8
v 61.1329 78.382 -8
v 21.815 55.2986 -8
v 53.0156 38.3032 -8
v 52.762 25.8737 -8
v 11.9222 48.957 -8
v -17.2491 32.7226 -8
v 43.6301 -2.02931 -8
v 32.4689 -8.62456 -8
v -27.3957 26.381 -8
v -55.5523 10.1465 -8
v 4.05861 -24.6054 -8
v -5.5806 -29.9323 -8
v -73.8161 9.89287 -8
v -94.3628 -2.53664 -8
v -88.2749 -8.11723 -8
v -74.3234 -0.507332 -8
v -5.32693 -40.0788 -8
v -21.8151 -49.718 -8
v -21.8151 -68.9964 -8
v -5.83426 -78.382 -8
v 11.9222 -68.4891 -8
v 11.9222 -50.2254 -8
v -4.81961 -40.3325 -8
v 21.815 -24.859 -8
v -38.3032 10.4002 -8
v -28.4103 16.4881 -8
v 32.4689 -18.5174 -8
v 60.8792 -1.77565 -8
v 60.8792 -21.5614 -8
v 77.621 -30.6933 -8
v 94.3628 -21.8151 -8
v 94.3628 -1.77565 -8
v 77.8747 7.86356 -8
v 61.1329 -1.77565 -8
v 0.253659 32.4689 -8
v 11.9222 39.0642 -8
v 61.1329 10.9075 -8
v 61.3865 44.1374 -8
v 39.5715 55.2986 -8
v 52.762 63.4159 -8
v 53.0156 53.523 8
v 61.1329 53.0157 8
v 61.1329 78.382 8
v 21.815 55.2986 8
v 53.0156 38.3032 8
v 52.762 25.8737 8
v 11.9222 48.957 8
v -17.2491 32.7226 8
v 43.6301 -2.02931 8
v 32.4689 -8.62456 8
v -27.3957 26.381 8
v -55.5523 10.1465 8
v 4.05861 -24.6054 8
v -5.5806 -29.9323 8
v -73.8161 9.89287 8
v -94.3628 -2.53664 8
v -88.2749 -8.11723 8
v -74.3234 -0.507332 8
v -5.32693 -40.0788 8
v -21.8151 -49.718 8
v -21.8151 -68.9964 8
v -5.83426 -78.382 8
v 11.9222 -68.4891 8
v 11.9222 -50.2254 8
v -4.81961 -40.3325 8
v 21.815 -24.859 8
v -38.3032 10.4002 8
v -28.4103 16.4881 8
v 32.4689 -18.5174 8
v 60.8792 -1.77565 8
v 60.8792 -21.5614 8
v 77.621 -30.6933 8
v 94.3628 -21.8151 8
v 94.3628 -1.77565 8
v 77.8747 7.86356 8
v 61.1329 -1.77565 8
v 0.253659 32.4689 8
v 11.9222 39.0642 8
v 61.1329 10.9075 8
v 61.3865 44.1374 8
v 39.5715 55.2986 8
v 52.762 63.4159 8
v 69.74 -7.28629 -8
v 77.6036 -2.974 -8
v 85.7208 -7.03262 -8
v 85.7208 -15.4035 -8
v 77.8573 -20.7305 -8
v 69.74 -16.4182 -8
v 69.74 -7.28629 8
v 77.6036 -2.974 8
v 85.7208 -7.03262 8
v 85.7208 -15.4035 8
v 77.8573 -20.7305 8
v 69.74 -16.4182 8
v -12.9368 -55.045 -8
v -5.07327 -50.7327 -8
v 3.04396 -54.7913 -8
v 3.04396 -63.1622 -8
v -4.81961 -68.4891 -8
v -12.9368 -64.1768 -8
v -12.9368 -55.045 8
v -5.07327 -50.7327 8
v 3.04396 -54.7913 8
v 3.04396 -63.1622 8
v -4.81961 -68.4891 8
v -12.9368 -64.1768 8
# 108 verticies
vn -0.0623775 -0.998053 0
vn 1 0 0
vn -0.506291 0.862363 0
vn -0.478352 -0.878168 0
vn -0.999792 0.0204038 0
vn 0.492057 0.870563 0
vn -0.486288 0.873799 0
vn -0.495749 -0.868466 0
vn -0.508729 0.860927 0
vn 0.50478 0.863248 0
vn -0.499497 0.866316 0
vn -0.503642 -0.863912 0
vn -0.483686 0.875242 0
vn 0.504071 0.863662 0
vn -0.517599 0.855623 0
vn -0.675725 -0.737154 0
vn 0.478852 -0.877896 0
vn -0.497512 -0.867457 0
vn -0.504697 0.863297 0
vn -1 0 0
vn -0.506422 -0.862286 0
vn 0.486702 -0.873568 0
vn 0.508729 0.860927 0
vn 0.502334 -0.864674 0
vn 0.505906 0.862588 0
vn 0.524097 -0.851658 0
vn -0.498471 -0.866906 0
vn 0.507692 -0.861538 0
vn -0.478852 -0.877896 0
vn 0.468502 -0.883462 0
vn 0.504696 0.863297 0
vn -0.498964 0.866623 0
vn 0.490261 0.871576 0
vn 0.492058 -0.870563 0
vn -0.496621 -0.867968 0
vn 0.999971 -0.00763344 0
vn 0.455476 0.890248 0
vn 0.524098 -0.851658 0
vn -0.999671 -0.0256325 0
vn 0.480833 -0.876812 0
vn -0.447214 -0.894427 0
vn -0.560848 0.827919 0
vn 0.469155 0.883116 0
vn 0.480833 -0.876812 0
vn -0.560848 0.827919 0
# 45 normals
f  44//1 43//1 1//1
f  1//1 2//1 44//1
f  45//2 44//2 2//2
f  2//2 3//2 45//2
f  46//3 45//3 3//3
f  3//3 4//3 46//3
f  47//4 46//4 4//4
f  4//4 5//4 47//4
f  48//5 47//5 5//5
f  5//5 6//5 48//5
f  49//6 48//6 6//6
f  6//6 7//6 49//6
f  50//7 49//7 7//7
f  7//7 8//7 50//7
f  51//8 50//8 8//8
f  8//8 9//8 51//8
f  52//9 51//9 9//9
f  9//9 10//9 52//9
f  53//10 52//10 10//10
f  10//10 11//10 53//10
f  54//11 53//11 11//11
f  11//11 12//11 54//11
f  55//12 54//12 12//12
f  12//12 13//12 55//12
f  56//13 55//13 13//13
f  13//13 14//13 56//13
f  57//14 56//14 14//14
f  14//14 15//14 57//14
f  58//15 57//15 15//15
f  15//15 16//15 58//15
f  59//16 58//16 16//16
f  16//16 17//16 59//16
f  60//17 59//17 17//17
f  17//17 18//17 60//17
f  61//18 60//18 18//18
f  18//18 19//18 61//18
f  62//19 61//19 19//19
f  19//19 20//19 62//19
f  63//20 62//20 20//20
f  20//20 21//20 63//20
f  64//21 63//21 21//21
f  21//21 22//21 64//21
f  65//22 64//22 22//22
f  22//22 23//22 65//22
f  66//2 65//2 23//2
f  23//2 24//2 66//2
f  67//23 66//23 24//23
f  24//23 25//23 67//23
f  68//24 67//24 25//24
f  25//24 26//24 68//24
f  69//25 68//25 26//25
f  26//25 27//25 69//25
f  70//26 69//26 27//26
f  27//26 28//26 70//26
f  71//27 70//27 28//27
f  28//27 29//27 71//27
f  72//28 71//28 29//28
f  29//28 30//28 72//28
f  73//20 72//20 30//20
f  30//20 31//20 73//20
f  74//29 73//29 31//29
f  31//29 32//29 74//29
f  75//30 74//30 32//30
f  32//30 33//30 75//30
f  76//2 75//2 33//2
f  33//2 34//2 76//2
f  77//31 76//31 34//31
f  34//31 35//31 77//31
f  78//32 77//32 35//32
f  35//32 36//32 78//32
f  79//33 78//33 36//33
f  36//33 37//33 79//33
f  80//34 79//34 37//34
f  37//34 38//34 80//34
f  81//35 80//35 38//35
f  38//35 39//35 81//35
f  82//36 81//36 39//36
f  39//36 40//36 82//36
f  83//37 82//37 40//37
f  40//37 41//37 83//37
f  84//38 83//38 41//38
f  41//38 42//38 84//38
f  43//39 84//39 42//39
f  42//39 1//39 43//39
f  92//40 91//40 85//40
f  85//40 86//40 92//40
f  93//41 92//41 86//41
f  86//41 87//41 93//41
f  94//20 93//20 87//20
f  87//20 88//20 94//20
f  95//42 94//42 88//42
f  88//42 89//42 95//42
f  96//43 95//43 89//43
f  89//43 90//43 96//43
f  91//2 96//2 90//2
f  90//2 85//2 91//2
f  104//44 103//44 97//44
f  97//44 98//44 104//44
f  105//41 104//41 98//41
f  98//41 99//41 105//41
f  106//20 105//20 99//20
f  99//20 100//20 106//20
f  107//45 106//45 100//45
f  100//45 101//45 107//45
f  108//43 107//43 101//43
f  101//43 102//43 108//43
f  103//2 108//2 102//2
f  102//2 97//2 103//2
# object front
g front
v 53.0156 53.523 8
v 61.1329 53.0157 8
v 61.1329 78.382 8
v 21.815 55.2986 8
v 53.0156 38.3032 8
v 52.762 25.8737 8
v 11.9222 48.957 8
v -17.2491 32.7226 8
v 43.6301 -2.02931 8
v 32.4689 -8.62456 8
v -27.3957 26.381 8
v -55.5523 10.1465 8
v 4.05861 -24.6054 8
v -5.5806 -29.9323 8
v -73.8161 9.89287 8
v -94.3628 -2.53664 8
v -88.2749 -8.11723 8
v -74.3234 -0.507332 8
v -5.32693 -40.0788 8
v -21.8151 -49.718 8
v -21.8151 -68.9964 8
v -5.83426 -78.382 8
v 11.9222 -68.4891 8
v 11.9222 -50.2254 8
v -4.81961 -40.3325 8
v 21.815 -24.859 8
v -38.3032 10.4002 8
v -28.4103 16.4881 8
v 32.4689 -18.5174 8
v 60.8792 -1.77565 8
v 60.8792 -21.5614 8
v 77.621 -30.6933 8
v 94.3628 -21.8151 8
v 94.3628 -1.77565 8
v 77.8747 7.86356 8
v 61.1329 -1.77565 8
v 0.253659 32.4689 8
v 11.9222 39.0642 8
v 61.1329 10.9075 8
v 61.3865 44.1374 8
v 39.5715 55.2986 8
v 52.762 63.4159 8
v 69.74 -7.28629 8
v 77.6036 -2.974 8
v 85.7208 -7.03262 8
v 85.7208 -15.4035 8
v 77.8573 -20.7305 8
v 69.74 -16.4182 8
v -12.9368 -55.045 8
v -5.07327 -50.7327 8
v 3.04396 -54.7913 8
v 3.04396 -63.1622 8
v -4.81961 -68.4891 8
v -12.9368 -64.1768 8
# 54 verticies
vn 0 0 1
# 1 normals
f  109//46 110//46 111//46
f  123//46 124//46 125//46
f  123//46 125//46 126//46
f  122//46 123//46 126//46
f  122//46 126//46 127//46
f  133//46 158//46 159//46
f  132//46 133//46 159//46
f  132//46 159//46 160//46
f  131//46 132//46 160//46
f  131//46 160//46 161//46
f  130//46 131//46 161//46
f  130//46 161//46 162//46
f  129//46 130//46 162//46
f  129//46 162//46 157//46
f  128//46 129//46 157//46
f  127//46 128//46 157//46
f  127//46 157//46 158//46
f  127//46 158//46 133//46
f  122//46 127//46 133//46
f  121//46 122//46 133//46
f  121//46 133//46 134//46
f  121//46 134//46 135//46
f  120//46 121//46 135//46
f  120//46 135//46 136//46
f  119//46 120//46 136//46
f  118//46 119//46 136//46
f  118//46 136//46 137//46
f  117//46 118//46 137//46
f  117//46 137//46 138//46
f  144//46 151//46 152//46
f  143//46 144//46 152//46
f  143//46 152//46 153//46
f  142//46 143//46 153//46
f  142//46 153//46 154//46
f  141//46 142//46 154//46
f  141//46 154//46 155//46
f  140//46 141//46 155//46
f  140//46 155//46 156//46
f  139//46 140//46 156//46
f  139//46 156//46 151//46
f  138//46 139//46 151//46
f  138//46 151//46 144//46
f  138//46 144//46 145//46
f  117//46 138//46 145//46
f  116//46 117//46 145//46
f  116//46 145//46 146//46
f  115//46 116//46 146//46
f  114//46 115//46 146//46
f  114//46 146//46 147//46
f  113//46 114//46 147//46
f  113//46 147//46 148//46
f  113//46 148//46 149//46
f  112//46 113//46 149//46
f  112//46 149//46 150//46
f  111//46 112//46 150//46
f  109//46 111//46 150//46
# object back
g back
v 53.0156 53.523 -8
v 61.1329 53.0157 -8
v 61.1329 78.382 -8
v 21.815 55.2986 -8
v 53.0156 38.3032 -8
v 52.762 25.8737 -8
v 11.9222 48.957 -8
v -17.2491 32.7226 -8
v 43.6301 -2.02931 -8
v 32.4689 -8.62456 -8
v -27.3957 26.381 -8
v -55.5523 10.1465 -8
v 4.05861 -24.6054 -8
v -5.5806 -29.9323 -8
v -73.8161 9.89287 -8
v -94.3628 -2.53664 -8
v -88.2749 -8.11723 -8
v -74.3234 -0.507332 -8
v -5.32693 -40.0788 -8
v -21.8151 -49.718 -8
v -21.8151 -68.9964 -8
v -5.83426 -78.382 -8
v 11.9222 -68.4891 -8
v 11.9222 -50.2254 -8
v -4.81961 -40.3325 -8
v 21.815 -24.859 -8
v -38.3032 10.4002 -8
v -28.4103 16.4881 -8
v 32.4689 -18.5174 -8
v 60.8792 -1.77565 -8
v 60.8792 -21.5614 -8
v 77.621 -30.6933 -8
v 94.3628 -21.8151 -8
v 94.3628 -1.77565 -8
v 77.8747 7.86356 -8
v 61.1329 -1.77565 -8
v 0.253659 32.4689 -8
v 11.9222 39.0642 -8
v 61.1329 10.9075 -8
v 61.3865 44.1374 -8
v 39.5715 55.2986 -8
v 52.762 63.4159 -8
v 69.74 -7.28629 -8
v 77.6036 -2.974 -8
v 85.7208 -7.03262 -8
v 85.7208 -15.4035 -8
v 77.8573 -20.7305 -8
v 69.74 -16.4182 -8
v -12.9368 -55.045 -8
v -5.07327 -50.7327 -8
v 3.04396 -54.7913 -8
v 3.04396 -63.1622 -8
v -4.81961 -68.4891 -8
v -12.9368 -64.1768 -8
# 54 verticies
vn 0 0 -1
# 1 normals
f  206//47 205//47 198//47
f  206//47 198//47 197//47
f  207//47 206//47 197//47
f  207//47 197//47 196//47
f  208//47 207//47 196//47
f  208//47 196//47 195//47
f  209//47 208//47 195//47
f  209//47 195//47 194//47
f  210//47 209//47 194//47
f  210//47 194//47 193//47
f  205//47 210//47 193//47
f  205//47 193//47 192//47
f  198//47 205//47 192//47
f  199//47 198//47 192//47
f  213//47 212//47 187//47
f  213//47 187//47 186//47
f  214//47 213//47 186//47
f  214//47 186//47 185//47
f  215//47 214//47 185//47
f  215//47 185//47 184//47
f  216//47 215//47 184//47
f  216//47 184//47 183//47
f  211//47 216//47 183//47
f  211//47 183//47 182//47
f  211//47 182//47 181//47
f  212//47 211//47 181//47
f  187//47 212//47 181//47
f  179//47 178//47 177//47
f  180//47 179//47 177//47
f  180//47 177//47 176//47
f  181//47 180//47 176//47
f  187//47 181//47 176//47
f  187//47 176//47 175//47
f  188//47 187//47 175//47
f  189//47 188//47 175//47
f  189//47 175//47 174//47
f  190//47 189//47 174//47
f  190//47 174//47 173//47
f  190//47 173//47 172//47
f  191//47 190//47 172//47
f  191//47 172//47 171//47
f  192//47 191//47 171//47
f  199//47 192//47 171//47
f  199//47 171//47 170//47
f  200//47 199//47 170//47
f  200//47 170//47 169//47
f  200//47 169//47 168//47
f  201//47 200//47 168//47
f  201//47 168//47 167//47
f  202//47 201//47 167//47
f  203//47 202//47 167//47
f  203//47 167//47 166//47
f  204//47 203//47 166//47
f  204//47 166//47 165//47
f  163//47 204//47 165//47
f  163//47 165//47 164//47
