# 
# Wavefront OBJ file
# Converted by the DEEP Exploration 3.5.10.1242
# Right Hemisphere, LTD
# http://www.righthemisphere.com/
# 
# object sides
g sides
v -7.92233 -59.5269 -8
v 0.330098 -71.4323 -8
v 8.25243 -59.5269 -8
v 8.25243 70.6882 -8
v -7.92233 70.6882 -8
v -7.92233 -59.5269 8
v 0.330098 -71.4323 8
v 8.25243 -59.5269 8
v 8.25243 70.6882 8
v -7.92233 70.6882 8
v 12.2136 70.4402 -8
v 12.3786 46.6294 -8
v 59.5826 46.8774 -8
v 12.0485 -23.8107 -8
v 12.2136 -53.3262 -8
v 94.7379 71.4323 -8
v 12.2136 70.4402 8
v 12.3786 46.6294 8
v 59.5826 46.8774 8
v 12.0485 -23.8107 8
v 12.2136 -53.3262 8
v 94.7379 71.4323 8
v -11.0583 -55.8065 -8
v -11.2233 -24.0588 -8
v -28.7185 2.48029 -8
v -11.7185 2.23227 -8
v -11.3884 26.291 -8
v -45.0583 26.043 -8
v -58.5923 47.6215 -8
v -12.0485 47.1255 -8
v -11.7185 70.1921 -8
v -94.7379 70.6882 -8
v -11.0583 -55.8065 8
v -11.2233 -24.0588 8
v -28.7185 2.48029 8
v -11.7185 2.23227 8
v -11.3884 26.291 8
v -45.0583 26.043 8
v -58.5923 47.6215 8
v -12.0485 47.1255 8
v -11.7185 70.1921 8
v -94.7379 70.6882 8
# 42 verticies
vn -0.821861 -0.569688 0
vn 0.832521 -0.553994 0
vn 1 0 0
vn 0 1 0
vn -1 0 0
vn -0.999976 -0.00693152 0
vn 0.0052544 -0.999986 0
vn -0.82983 0.558016 0
vn -0.999984 -0.00559186 0
vn 0.834044 -0.551698 0
vn -0.0120212 0.999928 0
vn 0.999987 0.00519869 0
vn 0.834908 0.55039 0
vn -0.0145884 -0.999894 0
vn 0.999906 -0.0137191 0
vn -0.00736636 0.999973 0
vn 0.84716 0.531337 0
vn -0.0106572 -0.999943 0
vn 0.999898 -0.0143092 0
vn 0.00597516 0.999982 0
vn -0.834023 -0.551729 0
# 21 normals
f  7//1 6//1 1//1
f  1//1 2//1 7//1
f  8//2 7//2 2//2
f  2//2 3//2 8//2
f  9//3 8//3 3//3
f  3//3 4//3 9//3
f  10//4 9//4 4//4
f  4//4 5//4 10//4
f  6//5 10//5 5//5
f  5//5 1//5 6//5
f  18//6 17//6 11//6
f  11//6 12//6 18//6
f  19//7 18//7 12//7
f  12//7 13//7 19//7
f  20//8 19//8 13//8
f  13//8 14//8 20//8
f  21//9 20//9 14//9
f  14//9 15//9 21//9
f  22//10 21//10 15//10
f  15//10 16//10 22//10
f  17//11 22//11 16//11
f  16//11 11//11 17//11
f  34//12 33//12 23//12
f  23//12 24//12 34//12
f  35//13 34//13 24//13
f  24//13 25//13 35//13
f  36//14 35//14 25//14
f  25//14 26//14 36//14
f  37//15 36//15 26//15
f  26//15 27//15 37//15
f  38//16 37//16 27//16
f  27//16 28//16 38//16
f  39//17 38//17 28//17
f  28//17 29//17 39//17
f  40//18 39//18 29//18
f  29//18 30//18 40//18
f  41//19 40//19 30//19
f  30//19 31//19 41//19
f  42//20 41//20 31//20
f  31//20 32//20 42//20
f  33//21 42//21 32//21
f  32//21 23//21 33//21
# object front
g front
v -7.92233 -59.5269 8
v 0.330098 -71.4323 8
v 8.25243 -59.5269 8
v 8.25243 70.6882 8
v -7.92233 70.6882 8
v 12.2136 70.4402 8
v 12.3786 46.6294 8
v 59.5826 46.8774 8
v 12.0485 -23.8107 8
v 12.2136 -53.3262 8
v 94.7379 71.4323 8
v -11.0583 -55.8065 8
v -11.2233 -24.0588 8
v -28.7185 2.48029 8
v -11.7185 2.23227 8
v -11.3884 26.291 8
v -45.0583 26.043 8
v -58.5923 47.6215 8
v -12.0485 47.1255 8
v -11.7185 70.1921 8
v -94.7379 70.6882 8
# 21 verticies
vn 0 0 1
# 1 normals
f  43//22 44//22 45//22
f  45//22 46//22 47//22
f  43//22 45//22 47//22
f  51//22 52//22 53//22
f  48//22 49//22 50//22
f  53//22 48//22 50//22
f  51//22 53//22 50//22
f  57//22 58//22 59//22
f  60//22 61//22 62//22
f  60//22 62//22 63//22
f  59//22 60//22 63//22
f  63//22 54//22 55//22
f  63//22 55//22 56//22
f  59//22 63//22 56//22
f  57//22 59//22 56//22
# object back
g back
v -7.92233 -59.5269 -8
v 0.330098 -71.4323 -8
v 8.25243 -59.5269 -8
v 8.25243 70.6882 -8
v -7.92233 70.6882 -8
v 12.2136 70.4402 -8
v 12.3786 46.6294 -8
v 59.5826 46.8774 -8
v 12.0485 -23.8107 -8
v 12.2136 -53.3262 -8
v 94.7379 71.4323 -8
v -11.0583 -55.8065 -8
v -11.2233 -24.0588 -8
v -28.7185 2.48029 -8
v -11.7185 2.23227 -8
v -11.3884 26.291 -8
v -45.0583 26.043 -8
v -58.5923 47.6215 -8
v -12.0485 47.1255 -8
v -11.7185 70.1921 -8
v -94.7379 70.6882 -8
# 21 verticies
vn 0 0 -1
# 1 normals
f  68//23 67//23 66//23
f  64//23 68//23 66//23
f  64//23 66//23 65//23
f  71//23 70//23 69//23
f  71//23 69//23 74//23
f  72//23 71//23 74//23
f  72//23 74//23 73//23
f  76//23 75//23 84//23
f  77//23 76//23 84//23
f  83//23 82//23 81//23
f  84//23 83//23 81//23
f  84//23 81//23 80//23
f  77//23 84//23 80//23
f  78//23 77//23 80//23
f  78//23 80//23 79//23
