# 
# Wavefront OBJ file
# Converted by the DEEP Exploration 3.5.10.1242
# Right Hemisphere, LTD
# http://www.righthemisphere.com/
# 
# object sides
g sides
v 25.7625 26.9442 -8
v 29.6354 28.5845 -8
v 33.1238 31.0786 -8
v 36.1422 34.3098 -8
v 38.6051 38.1615 -8
v 40.4271 42.5172 -8
v 41.5224 47.2601 -8
v 41.8057 52.2738 -8
v 41.1229 57.6771 -8
v 39.4902 62.5324 -8
v 37.0306 66.7088 -8
v 33.8673 70.0752 -8
v 30.1234 72.5005 -8
v 25.9219 73.8539 -8
v 21.386 74.0043 -8
v 16.8873 72.8951 -8
v 12.792 70.6612 -8
v 9.21466 67.4587 -8
v 6.26984 63.4441 -8
v 4.07215 58.7735 -8
v 2.7362 53.6031 -8
v 2.3766 48.0891 -8
v 2.57593 45.4522 -8
v 3.00595 42.9244 -8
v 3.65332 40.5198 -8
v 4.50468 38.2526 -8
v 5.54668 36.1371 -8
v 6.76597 34.1876 -8
v 8.14919 32.418 -8
v 7.75191 29.1364 -8
v -8.62948 34.4032 -8
v -38.7595 61.9074 -8
v -62.454 46.9849 -8
v -54.5559 31.7698 -8
v -39.0521 44.9367 -8
v 6.28928 10.7027 -8
v -2.63272 -9.6328 -8
v -17.259 5.58229 -8
v -32.4702 -20.7515 -8
v -46.5114 -3.19565 -8
v -68.1582 -26.6035 -8
v -78.6892 -6.70682 -8
v -88.635 -17.2403 -8
v -68.7433 -53.5225 -8
v -50.0217 -27.7739 -8
v -32.4702 -46.5001 -8
v -14.3337 -24.2627 -8
v 2.04768 -32.4554 -8
v -3.80282 -57.6188 -8
v 6.72807 -63.4708 -8
v 11.4085 -37.7222 -8
v 68.1583 -74.0043 -8
v 88.635 -43.5741 -8
v 77.5191 -26.0183 -8
v 60.5526 -47.6705 -8
v 23.1095 -27.1887 -8
v 29.545 -2.02526 -8
v 50.6068 -18.4107 -8
v 64.648 14.3602 -8
v 74.5938 8.50826 -8
v 79.2742 18.4566 -8
v 60.5526 28.4049 -8
v 48.8516 6.75268 -8
v 24.8646 23.1382 -8
v 25.7625 26.9442 8
v 29.6354 28.5845 8
v 33.1238 31.0786 8
v 36.1422 34.3098 8
v 38.6051 38.1615 8
v 40.4271 42.5172 8
v 41.5224 47.2601 8
v 41.8057 52.2738 8
v 41.1229 57.6771 8
v 39.4902 62.5324 8
v 37.0306 66.7088 8
v 33.8673 70.0752 8
v 30.1234 72.5005 8
v 25.9219 73.8539 8
v 21.386 74.0043 8
v 16.8873 72.8951 8
v 12.792 70.6612 8
v 9.21466 67.4587 8
v 6.26984 63.4441 8
v 4.07215 58.7735 8
v 2.7362 53.6031 8
v 2.3766 48.0891 8
v 2.57593 45.4522 8
v 3.00595 42.9244 8
v 3.65332 40.5198 8
v 4.50468 38.2526 8
v 5.54668 36.1371 8
v 6.76597 34.1876 8
v 8.14919 32.418 8
v 7.75191 29.1364 8
v -8.62948 34.4032 8
v -38.7595 61.9074 8
v -62.454 46.9849 8
v -54.5559 31.7698 8
v -39.0521 44.9367 8
v 6.28928 10.7027 8
v -2.63272 -9.6328 8
v -17.259 5.58229 8
v -32.4702 -20.7515 8
v -46.5114 -3.19565 8
v -68.1582 -26.6035 8
v -78.6892 -6.70682 8
v -88.635 -17.2403 8
v -68.7433 -53.5225 8
v -50.0217 -27.7739 8
v -32.4702 -46.5001 8
v -14.3337 -24.2627 8
v 2.04768 -32.4554 8
v -3.80282 -57.6188 8
v 6.72807 -63.4708 8
v 11.4085 -37.7222 8
v 68.1583 -74.0043 8
v 88.635 -43.5741 8
v 77.5191 -26.0183 8
v 60.5526 -47.6705 8
v 23.1095 -27.1887 8
v 29.545 -2.02526 8
v 50.6068 -18.4107 8
v 64.648 14.3602 8
v 74.5938 8.50826 8
v 79.2742 18.4566 8
v 60.5526 28.4049 8
v 48.8516 6.75268 8
v 24.8646 23.1382 8
# 128 verticies
vn 0.456327 -0.889812 0
vn 0.390011 -0.92081 0
vn 0.520536 -0.85384 0
vn 0.6341 -0.773251 0
vn 0.684037 -0.729447 0
vn 0.770848 -0.637019 0
vn 0.808229 -0.588868 0
vn 0.87206 -0.489398 0
vn 0.898835 -0.438286 0
vn 0.942811 -0.333329 0
vn 0.960135 -0.279536 0
vn 0.985553 -0.169367 0
vn 0.993597 -0.112981 0
vn 0.999991 0.00419644 0
vn 0.997884 0.0650123 0
vn 0.981657 0.190657 0
vn 0.966836 0.255398 0
vn 0.923548 0.383483 0
vn 0.894686 0.446695 0
vn 0.821861 0.569688 0
vn 0.777307 0.629121 0
vn 0.67141 0.741086 0
vn 0.609326 0.79292 0
vn 0.468265 0.883588 0
vn 0.388623 0.921397 0
vn 0.217318 0.976101 0
vn 0.12537 0.99211 0
vn -0.0581975 0.998305 0
vn -0.149809 0.988715 0
vn -0.321591 0.946879 0
vn -0.402009 0.915636 0
vn -0.544796 0.838568 0
vn -0.607871 0.794036 0
vn -0.716866 0.697211 0
vn -0.76354 0.64576 0
vn -0.842655 0.538454 0
vn -0.875626 0.482989 0
vn -0.929566 0.368656 0
vn -0.95077 0.309899 0
vn -0.981936 0.189212 0
vn -0.991868 0.127273 0
vn -0.999833 0.0183004 0
vn -0.99959 -0.0286215 0
vn -0.994339 -0.106256 0
vn -0.990562 -0.137062 0
vn -0.980069 -0.198656 0
vn -0.973323 -0.229439 0
vn -0.956786 -0.290793 0
vn -0.946959 -0.321353 0
vn -0.924134 -0.382068 0
vn -0.911091 -0.412206 0
vn -0.881671 -0.471864 0
vn -0.865241 -0.501357 0
vn -0.828854 -0.559465 0
vn -0.808832 -0.588039 0
vn -0.787852 -0.615864 0
vn -0.992752 0.120185 0
vn 0.306078 0.952006 0
vn 0.674191 0.738557 0
vn -0.532909 0.846173 0
vn -0.887543 -0.460725 0
vn 0.647325 -0.762214 0
vn -0.602565 -0.79807 0
vn -0.91574 0.401771 0
vn 0.72092 0.693019 0
vn -0.865919 0.500184 0
vn 0.780945 0.6246 0
vn -0.734184 0.678951 0
vn 0.883836 0.467797 0
vn -0.727099 0.686533 0
vn -0.876863 -0.48074 0
vn 0.808806 -0.588076 0
vn -0.729622 -0.68385 0
vn 0.774942 -0.632032 0
vn -0.447303 -0.894383 0
vn -0.974021 0.22646 0
vn -0.485735 -0.874106 0
vn 0.983878 -0.178842 0
vn -0.538656 -0.842526 0
vn 0.829652 -0.55828 0
vn 0.84488 0.534956 0
vn -0.787131 0.616786 0
vn 0.479905 0.877321 0
vn 0.968818 -0.247775 0
vn -0.614036 -0.789278 0
vn 0.919181 -0.393836 0
vn -0.507114 -0.861879 0
vn 0.90486 -0.42571 0
vn 0.469246 0.883067 0
vn -0.879756 0.475425 0
vn 0.564058 0.825735 0
vn 0.973281 -0.229617 0
# 92 normals
f  66//1 65//2 1//2
f  1//2 2//3 66//1
f  67//4 66//1 2//3
f  2//3 3//5 67//4
f  68//6 67//4 3//5
f  3//5 4//7 68//6
f  69//8 68//6 4//7
f  4//7 5//9 69//8
f  70//10 69//8 5//9
f  5//9 6//11 70//10
f  71//12 70//10 6//11
f  6//11 7//13 71//12
f  72//14 71//12 7//13
f  7//13 8//15 72//14
f  73//16 72//14 8//15
f  8//15 9//17 73//16
f  74//18 73//16 9//17
f  9//17 10//19 74//18
f  75//20 74//18 10//19
f  10//19 11//21 75//20
f  76//22 75//20 11//21
f  11//21 12//23 76//22
f  77//24 76//22 12//23
f  12//23 13//25 77//24
f  78//26 77//24 13//25
f  13//25 14//27 78//26
f  79//28 78//26 14//27
f  14//27 15//29 79//28
f  80//30 79//28 15//29
f  15//29 16//31 80//30
f  81//32 80//30 16//31
f  16//31 17//33 81//32
f  82//34 81//32 17//33
f  17//33 18//35 82//34
f  83//36 82//34 18//35
f  18//35 19//37 83//36
f  84//38 83//36 19//37
f  19//37 20//39 84//38
f  85//40 84//38 20//39
f  20//39 21//41 85//40
f  86//42 85//40 21//41
f  21//41 22//43 86//42
f  87//44 86//42 22//43
f  22//43 23//45 87//44
f  88//46 87//44 23//45
f  23//45 24//47 88//46
f  89//48 88//46 24//47
f  24//47 25//49 89//48
f  90//50 89//48 25//49
f  25//49 26//51 90//50
f  91//52 90//50 26//51
f  26//51 27//53 91//52
f  92//54 91//52 27//53
f  27//53 28//55 92//54
f  93//56 92//54 28//55
f  28//55 29//56 93//56
f  94//57 93//57 29//57
f  29//57 30//57 94//57
f  95//58 94//58 30//58
f  30//58 31//58 95//58
f  96//59 95//59 31//59
f  31//59 32//59 96//59
f  97//60 96//60 32//60
f  32//60 33//60 97//60
f  98//61 97//61 33//61
f  33//61 34//61 98//61
f  99//62 98//62 34//62
f  34//62 35//62 99//62
f  100//63 99//63 35//63
f  35//63 36//63 100//63
f  101//64 100//64 36//64
f  36//64 37//64 101//64
f  102//65 101//65 37//65
f  37//65 38//65 102//65
f  103//66 102//66 38//66
f  38//66 39//66 103//66
f  104//67 103//67 39//67
f  39//67 40//67 104//67
f  105//68 104//68 40//68
f  40//68 41//68 105//68
f  106//69 105//69 41//69
f  41//69 42//69 106//69
f  107//70 106//70 42//70
f  42//70 43//70 107//70
f  108//71 107//71 43//71
f  43//71 44//71 108//71
f  109//72 108//72 44//72
f  44//72 45//72 109//72
f  110//73 109//73 45//73
f  45//73 46//73 110//73
f  111//74 110//74 46//74
f  46//74 47//74 111//74
f  112//75 111//75 47//75
f  47//75 48//75 112//75
f  113//76 112//76 48//76
f  48//76 49//76 113//76
f  114//77 113//77 49//77
f  49//77 50//77 114//77
f  115//78 114//78 50//78
f  50//78 51//78 115//78
f  116//79 115//79 51//79
f  51//79 52//79 116//79
f  117//80 116//80 52//80
f  52//80 53//80 117//80
f  118//81 117//81 53//81
f  53//81 54//81 118//81
f  119//82 118//82 54//82
f  54//82 55//82 119//82
f  120//83 119//83 55//83
f  55//83 56//83 120//83
f  121//84 120//84 56//84
f  56//84 57//84 121//84
f  122//85 121//85 57//85
f  57//85 58//85 122//85
f  123//86 122//86 58//86
f  58//86 59//86 123//86
f  124//87 123//87 59//87
f  59//87 60//87 124//87
f  125//88 124//88 60//88
f  60//88 61//88 125//88
f  126//89 125//89 61//89
f  61//89 62//89 126//89
f  127//90 126//90 62//90
f  62//90 63//90 127//90
f  128//91 127//91 63//91
f  63//91 64//91 128//91
f  65//92 128//92 64//92
f  64//92 1//92 65//92
# object front
g front
v 25.7625 26.9442 8
v 29.6354 28.5845 8
v 33.1238 31.0786 8
v 36.1422 34.3098 8
v 38.6051 38.1615 8
v 40.4271 42.5172 8
v 41.5224 47.2601 8
v 41.8057 52.2738 8
v 41.1229 57.6771 8
v 39.4902 62.5324 8
v 37.0306 66.7088 8
v 33.8673 70.0752 8
v 30.1234 72.5005 8
v 25.9219 73.8539 8
v 21.386 74.0043 8
v 16.8873 72.8951 8
v 12.792 70.6612 8
v 9.21466 67.4587 8
v 6.26984 63.4441 8
v 4.07215 58.7735 8
v 2.7362 53.6031 8
v 2.3766 48.0891 8
v 2.57593 45.4522 8
v 3.00595 42.9244 8
v 3.65332 40.5198 8
v 4.50468 38.2526 8
v 5.54668 36.1371 8
v 6.76597 34.1876 8
v 8.14919 32.418 8
v 7.75191 29.1364 8
v -8.62948 34.4032 8
v -38.7595 61.9074 8
v -62.454 46.9849 8
v -54.5559 31.7698 8
v -39.0521 44.9367 8
v 6.28928 10.7027 8
v -2.63272 -9.6328 8
v -17.259 5.58229 8
v -32.4702 -20.7515 8
v -46.5114 -3.19565 8
v -68.1582 -26.6035 8
v -78.6892 -6.70682 8
v -88.635 -17.2403 8
v -68.7433 -53.5225 8
v -50.0217 -27.7739 8
v -32.4702 -46.5001 8
v -14.3337 -24.2627 8
v 2.04768 -32.4554 8
v -3.80282 -57.6188 8
v 6.72807 -63.4708 8
v 11.4085 -37.7222 8
v 68.1583 -74.0043 8
v 88.635 -43.5741 8
v 77.5191 -26.0183 8
v 60.5526 -47.6705 8
v 23.1095 -27.1887 8
v 29.545 -2.02526 8
v 50.6068 -18.4107 8
v 64.648 14.3602 8
v 74.5938 8.50826 8
v 79.2742 18.4566 8
v 60.5526 28.4049 8
v 48.8516 6.75268 8
v 24.8646 23.1382 8
# 64 verticies
vn 0 0 1
# 1 normals
f  177//93 178//93 179//93
f  181//93 182//93 183//93
f  180//93 181//93 183//93
f  179//93 180//93 183//93
f  179//93 183//93 184//93
f  187//93 188//93 189//93
f  187//93 189//93 190//93
f  187//93 190//93 191//93
f  186//93 187//93 191//93
f  185//93 186//93 191//93
f  185//93 191//93 192//93
f  141//93 142//93 143//93
f  140//93 141//93 143//93
f  140//93 143//93 144//93
f  140//93 144//93 145//93
f  139//93 140//93 145//93
f  139//93 145//93 146//93
f  138//93 139//93 146//93
f  138//93 146//93 147//93
f  137//93 138//93 147//93
f  137//93 147//93 148//93
f  136//93 137//93 148//93
f  136//93 148//93 149//93
f  135//93 136//93 149//93
f  135//93 149//93 150//93
f  135//93 150//93 151//93
f  134//93 135//93 151//93
f  134//93 151//93 152//93
f  134//93 152//93 153//93
f  133//93 134//93 153//93
f  133//93 153//93 154//93
f  133//93 154//93 155//93
f  132//93 133//93 155//93
f  132//93 155//93 156//93
f  132//93 156//93 157//93
f  131//93 132//93 157//93
f  130//93 131//93 157//93
f  129//93 130//93 157//93
f  129//93 157//93 158//93
f  192//93 129//93 158//93
f  161//93 162//93 163//93
f  160//93 161//93 163//93
f  159//93 160//93 163//93
f  159//93 163//93 164//93
f  158//93 159//93 164//93
f  192//93 158//93 164//93
f  185//93 192//93 164//93
f  185//93 164//93 165//93
f  184//93 185//93 165//93
f  169//93 170//93 171//93
f  169//93 171//93 172//93
f  169//93 172//93 173//93
f  168//93 169//93 173//93
f  167//93 168//93 173//93
f  167//93 173//93 174//93
f  167//93 174//93 175//93
f  166//93 167//93 175//93
f  165//93 166//93 175//93
f  165//93 175//93 176//93
f  184//93 165//93 176//93
f  179//93 184//93 176//93
f  177//93 179//93 176//93
# object back
g back
v 25.7625 26.9442 -8
v 29.6354 28.5845 -8
v 33.1238 31.0786 -8
v 36.1422 34.3098 -8
v 38.6051 38.1615 -8
v 40.4271 42.5172 -8
v 41.5224 47.2601 -8
v 41.8057 52.2738 -8
v 41.1229 57.6771 -8
v 39.4902 62.5324 -8
v 37.0306 66.7088 -8
v 33.8673 70.0752 -8
v 30.1234 72.5005 -8
v 25.9219 73.8539 -8
v 21.386 74.0043 -8
v 16.8873 72.8951 -8
v 12.792 70.6612 -8
v 9.21466 67.4587 -8
v 6.26984 63.4441 -8
v 4.07215 58.7735 -8
v 2.7362 53.6031 -8
v 2.3766 48.0891 -8
v 2.57593 45.4522 -8
v 3.00595 42.9244 -8
v 3.65332 40.5198 -8
v 4.50468 38.2526 -8
v 5.54668 36.1371 -8
v 6.76597 34.1876 -8
v 8.14919 32.418 -8
v 7.75191 29.1364 -8
v -8.62948 34.4032 -8
v -38.7595 61.9074 -8
v -62.454 46.9849 -8
v -54.5559 31.7698 -8
v -39.0521 44.9367 -8
v 6.28928 10.7027 -8
v -2.63272 -9.6328 -8
v -17.259 5.58229 -8
v -32.4702 -20.7515 -8
v -46.5114 -3.19565 -8
v -68.1582 -26.6035 -8
v -78.6892 -6.70682 -8
v -88.635 -17.2403 -8
v -68.7433 -53.5225 -8
v -50.0217 -27.7739 -8
v -32.4702 -46.5001 -8
v -14.3337 -24.2627 -8
v 2.04768 -32.4554 -8
v -3.80282 -57.6188 -8
v 6.72807 -63.4708 -8
v 11.4085 -37.7222 -8
v 68.1583 -74.0043 -8
v 88.635 -43.5741 -8
v 77.5191 -26.0183 -8
v 60.5526 -47.6705 -8
v 23.1095 -27.1887 -8
v 29.545 -2.02526 -8
v 50.6068 -18.4107 -8
v 64.648 14.3602 -8
v 74.5938 8.50826 -8
v 79.2742 18.4566 -8
v 60.5526 28.4049 -8
v 48.8516 6.75268 -8
v 24.8646 23.1382 -8
# 64 verticies
vn 0 0 -1
# 1 normals
f  235//94 234//94 233//94
f  236//94 235//94 233//94
f  237//94 236//94 233//94
f  237//94 233//94 232//94
f  237//94 232//94 231//94
f  238//94 237//94 231//94
f  239//94 238//94 231//94
f  239//94 231//94 230//94
f  239//94 230//94 229//94
f  240//94 239//94 229//94
f  227//94 226//94 225//94
f  227//94 225//94 224//94
f  227//94 224//94 223//94
f  228//94 227//94 223//94
f  228//94 223//94 222//94
f  207//94 206//94 205//94
f  207//94 205//94 204//94
f  208//94 207//94 204//94
f  209//94 208//94 204//94
f  209//94 204//94 203//94
f  210//94 209//94 203//94
f  210//94 203//94 202//94
f  211//94 210//94 202//94
f  211//94 202//94 201//94
f  212//94 211//94 201//94
f  212//94 201//94 200//94
f  213//94 212//94 200//94
f  213//94 200//94 199//94
f  214//94 213//94 199//94
f  215//94 214//94 199//94
f  215//94 199//94 198//94
f  216//94 215//94 198//94
f  217//94 216//94 198//94
f  217//94 198//94 197//94
f  218//94 217//94 197//94
f  219//94 218//94 197//94
f  219//94 197//94 196//94
f  220//94 219//94 196//94
f  221//94 220//94 196//94
f  221//94 196//94 195//94
f  221//94 195//94 194//94
f  221//94 194//94 193//94
f  222//94 221//94 193//94
f  222//94 193//94 256//94
f  228//94 222//94 256//94
f  253//94 252//94 251//94
f  254//94 253//94 251//94
f  255//94 254//94 251//94
f  255//94 251//94 250//94
f  255//94 250//94 249//94
f  256//94 255//94 249//94
f  228//94 256//94 249//94
f  229//94 228//94 249//94
f  229//94 249//94 248//94
f  240//94 229//94 248//94
f  247//94 246//94 245//94
f  247//94 245//94 244//94
f  247//94 244//94 243//94
f  248//94 247//94 243//94
f  240//94 248//94 243//94
f  241//94 240//94 243//94
f  241//94 243//94 242//94
