# 
# Wavefront OBJ file
# Converted by the DEEP Exploration 3.5.10.1242
# Right Hemisphere, LTD
# http://www.righthemisphere.com/
# 
# object sides
g sides
v -48 0 -8
v 48 0 -8
v 0 96 -8
v -48 0 8
v 48 0 8
v 0 96 8
v 0 -96 -8
v 96 -96 -8
v 48 0 -8
v 0 -96 8
v 96 -96 8
v 48 0 8
v -96 -96 -8
v 0 -96 -8
v -48 0 -8
v -96 -96 8
v 0 -96 8
v -48 0 8
v 48 0 -8
v 48 0 8
v 48 0 -8
v 0 96 -8
v -48 0 -8
v -48 0 8
v -48 0 8
v 0 96 8
v 0 96 -8
v 96 -96 -8
v 96 -96 8
v 96 -96 -8
v 48 0 -8
v 0 -96 -8
v 0 -96 8
v 0 -96 8
v 48 0 8
v 48 0 -8
v 0 -96 -8
v 0 -96 8
v 0 -96 -8
v -48 0 -8
v -96 -96 -8
v -96 -96 8
v -96 -96 8
v -48 0 8
v -48 0 -8
# 45 verticies
vt 0 0
vt 1 0
vt 1 1
vt 0 1
# 4 texture verticies
vn 0 -1 0
vn 0.894427 0.447214 0
vn -0.894427 0.447214 0
# 3 normals
f  1/1/1 2/2/1 5/3/1
f  5/3/1 4/4/1 1/1/1
f  19/1/2 3/2/2 6/3/2
f  6/3/2 20/4/2 21/1/2
f  22/1/3 23/2/3 24/3/3
f  25/3/3 26/4/3 27/1/3
f  7/1/1 8/2/1 11/3/1
f  11/3/1 10/4/1 7/1/1
f  28/1/2 9/2/2 12/3/2
f  12/3/2 29/4/2 30/1/2
f  31/1/3 32/2/3 33/3/3
f  34/3/3 35/4/3 36/1/3
f  13/1/1 14/2/1 17/3/1
f  17/3/1 16/4/1 13/1/1
f  37/1/2 15/2/2 18/3/2
f  18/3/2 38/4/2 39/1/2
f  40/1/3 41/2/3 42/3/3
f  43/3/3 44/4/3 45/1/3
# object front
g front
v -48 0 8
v 48 0 8
v 0 96 8
v 0 -96 8
v 96 -96 8
v 48 0 8
v -96 -96 8
v 0 -96 8
v -48 0 8
# 9 verticies
vt 0 0
vt 1 0
vt 0.5 1
# 3 texture verticies
vn 0 0 1
# 1 normals
f  46/5/4 47/6/4 48/7/4
f  49/5/4 50/6/4 51/7/4
f  52/5/4 53/6/4 54/7/4
# object back
g back
v -48 0 -8
v 48 0 -8
v 0 96 -8
v 0 -96 -8
v 96 -96 -8
v 48 0 -8
v -96 -96 -8
v 0 -96 -8
v -48 0 -8
# 9 verticies
vt 1 0
vt 0.5 1
vt 0 0
# 3 texture verticies
vn 0 0 -1
# 1 normals
f  55/8/5 57/9/5 56/10/5
f  58/8/5 60/9/5 59/10/5
f  61/8/5 63/9/5 62/10/5
